<svg width="189" height="44" viewBox="0 0 189 44" fill="none" xmlns="http://www.w3.org/2000/svg">
<g filter="url(#filter0_dd_3_23)">
<rect x="2" y="1" width="185" height="40" rx="2" fill="white" shape-rendering="crispEdges"/>
<path fill-rule="evenodd" clip-rule="evenodd" d="M31.64 21.2045C31.64 20.5664 31.5827 19.9527 31.4764 19.3636H23V22.845H27.8436C27.635 23.97 27.0009 24.9232 26.0477 25.5614V27.8195H28.9564C30.6582 26.2527 31.64 23.9455 31.64 21.2045Z" fill="#4285F4"/>
<path fill-rule="evenodd" clip-rule="evenodd" d="M23 30C25.43 30 27.4673 29.1941 28.9564 27.8195L26.0477 25.5614C25.2418 26.1014 24.2109 26.4205 23 26.4205C20.6559 26.4205 18.6718 24.8373 17.9641 22.71H14.9573V25.0418C16.4382 27.9832 19.4818 30 23 30Z" fill="#34A853"/>
<path fill-rule="evenodd" clip-rule="evenodd" d="M17.9641 22.71C17.7841 22.17 17.6818 21.5932 17.6818 21C17.6818 20.4068 17.7841 19.83 17.9641 19.29V16.9582H14.9573C14.3477 18.1732 14 19.5477 14 21C14 22.4523 14.3477 23.8268 14.9573 25.0418L17.9641 22.71Z" fill="#FBBC05"/>
<path fill-rule="evenodd" clip-rule="evenodd" d="M23 15.5795C24.3214 15.5795 25.5077 16.0336 26.4405 16.9255L29.0218 14.3441C27.4632 12.8918 25.4259 12 23 12C19.4818 12 16.4382 14.0168 14.9573 16.9582L17.9641 19.29C18.6718 17.1627 20.6559 15.5795 23 15.5795Z" fill="#EA4335"/>
<path d="M44 1H183C185.209 1 187 2.79086 187 5V37C187 39.2091 185.209 41 183 41H44V1Z" fill="#4285F4"/>
<path d="M61.248 23.4365C61.248 23.2314 61.2161 23.0492 61.1523 22.8896C61.0931 22.7301 60.986 22.5843 60.8311 22.4521C60.6761 22.32 60.4574 22.1924 60.1748 22.0693C59.8968 21.9417 59.5413 21.8118 59.1084 21.6797C58.6344 21.5339 58.1969 21.3721 57.7959 21.1943C57.3994 21.012 57.0531 20.8024 56.7568 20.5654C56.4606 20.3239 56.2305 20.0482 56.0664 19.7383C55.9023 19.4238 55.8203 19.0615 55.8203 18.6514C55.8203 18.2458 55.9046 17.8766 56.0732 17.5439C56.2464 17.2113 56.4902 16.9242 56.8047 16.6826C57.1237 16.4365 57.4997 16.2474 57.9326 16.1152C58.3656 15.9785 58.8441 15.9102 59.3682 15.9102C60.1064 15.9102 60.7422 16.0469 61.2754 16.3203C61.8132 16.5938 62.2256 16.9606 62.5127 17.4209C62.8044 17.8812 62.9502 18.3893 62.9502 18.9453H61.248C61.248 18.6172 61.1774 18.3278 61.0361 18.0771C60.8994 17.8219 60.6898 17.6214 60.4072 17.4756C60.1292 17.3298 59.776 17.2568 59.3477 17.2568C58.9421 17.2568 58.6048 17.3184 58.3359 17.4414C58.0671 17.5645 57.8665 17.7308 57.7344 17.9404C57.6022 18.1501 57.5361 18.387 57.5361 18.6514C57.5361 18.8382 57.5794 19.0091 57.666 19.1641C57.7526 19.3145 57.8848 19.4557 58.0625 19.5879C58.2402 19.7155 58.4635 19.8363 58.7324 19.9502C59.0013 20.0641 59.318 20.1735 59.6826 20.2783C60.234 20.4424 60.7148 20.6247 61.125 20.8252C61.5352 21.0212 61.877 21.2445 62.1504 21.4951C62.4238 21.7458 62.6289 22.0306 62.7656 22.3496C62.9023 22.6641 62.9707 23.0218 62.9707 23.4229C62.9707 23.8421 62.8864 24.2204 62.7178 24.5576C62.5492 24.8903 62.3076 25.1751 61.9932 25.4121C61.6833 25.6445 61.3096 25.8245 60.8721 25.9521C60.4391 26.0752 59.9561 26.1367 59.4229 26.1367C58.9443 26.1367 58.4727 26.0729 58.0078 25.9453C57.5475 25.8177 57.1283 25.624 56.75 25.3643C56.3717 25.0999 56.071 24.7718 55.8477 24.3799C55.6243 23.9834 55.5127 23.5208 55.5127 22.9922H57.2285C57.2285 23.3158 57.2832 23.5915 57.3926 23.8193C57.5065 24.0472 57.6637 24.234 57.8643 24.3799C58.0648 24.5212 58.2972 24.626 58.5615 24.6943C58.8304 24.7627 59.1175 24.7969 59.4229 24.7969C59.8239 24.7969 60.1589 24.7399 60.4277 24.626C60.7012 24.512 60.9062 24.3525 61.043 24.1475C61.1797 23.9424 61.248 23.7054 61.248 23.4365ZM66.0879 18.6035V26H64.4336V18.6035H66.0879ZM64.3242 16.6621C64.3242 16.4115 64.4062 16.2041 64.5703 16.04C64.7389 15.8714 64.9714 15.7871 65.2676 15.7871C65.5592 15.7871 65.7894 15.8714 65.958 16.04C66.1266 16.2041 66.2109 16.4115 66.2109 16.6621C66.2109 16.9082 66.1266 17.1133 65.958 17.2773C65.7894 17.4414 65.5592 17.5234 65.2676 17.5234C64.9714 17.5234 64.7389 17.4414 64.5703 17.2773C64.4062 17.1133 64.3242 16.9082 64.3242 16.6621ZM72.6299 18.6035H74.127V25.7949C74.127 26.4603 73.9857 27.0254 73.7031 27.4902C73.4206 27.9551 73.0264 28.3083 72.5205 28.5498C72.0146 28.7959 71.429 28.9189 70.7637 28.9189C70.4811 28.9189 70.1667 28.8779 69.8203 28.7959C69.4785 28.7139 69.1458 28.5817 68.8223 28.3994C68.5033 28.2217 68.2367 27.987 68.0225 27.6953L68.7949 26.7246C69.0592 27.0391 69.3509 27.2692 69.6699 27.415C69.9889 27.5609 70.3239 27.6338 70.6748 27.6338C71.0531 27.6338 71.3743 27.5632 71.6387 27.4219C71.9076 27.2852 72.1149 27.0824 72.2607 26.8135C72.4066 26.5446 72.4795 26.2165 72.4795 25.8291V20.2783L72.6299 18.6035ZM67.6055 22.3838V22.2402C67.6055 21.6797 67.6738 21.1693 67.8105 20.709C67.9473 20.2441 68.1432 19.8454 68.3984 19.5127C68.6536 19.1755 68.9635 18.918 69.3281 18.7402C69.6927 18.5579 70.1051 18.4668 70.5654 18.4668C71.0439 18.4668 71.4518 18.5534 71.7891 18.7266C72.1309 18.8997 72.4157 19.1481 72.6436 19.4717C72.8714 19.7907 73.0492 20.1735 73.1768 20.6201C73.3089 21.0622 73.4069 21.5544 73.4707 22.0967V22.5547C73.4115 23.0833 73.3112 23.5664 73.1699 24.0039C73.0286 24.4414 72.8418 24.8197 72.6094 25.1387C72.377 25.4577 72.0898 25.7038 71.748 25.877C71.4108 26.0501 71.012 26.1367 70.5518 26.1367C70.1006 26.1367 69.6927 26.0433 69.3281 25.8564C68.9681 25.6696 68.6582 25.4076 68.3984 25.0703C68.1432 24.7331 67.9473 24.3366 67.8105 23.8809C67.6738 23.4206 67.6055 22.9215 67.6055 22.3838ZM69.2529 22.2402V22.3838C69.2529 22.721 69.2848 23.0355 69.3486 23.3271C69.417 23.6188 69.5195 23.8763 69.6562 24.0996C69.7975 24.3184 69.9753 24.4915 70.1895 24.6191C70.4082 24.7422 70.6657 24.8037 70.9619 24.8037C71.3493 24.8037 71.666 24.7217 71.9121 24.5576C72.1628 24.3936 72.3542 24.1725 72.4863 23.8945C72.623 23.612 72.7188 23.2975 72.7734 22.9512V21.7139C72.7461 21.445 72.6891 21.1943 72.6025 20.9619C72.5205 20.7295 72.4089 20.5267 72.2676 20.3535C72.1263 20.1758 71.9486 20.0391 71.7344 19.9434C71.5202 19.8431 71.2673 19.793 70.9756 19.793C70.6794 19.793 70.4219 19.8568 70.2031 19.9844C69.9844 20.112 69.8044 20.2874 69.6631 20.5107C69.5264 20.734 69.4238 20.9938 69.3555 21.29C69.2871 21.5863 69.2529 21.903 69.2529 22.2402ZM77.4697 20.1826V26H75.8223V18.6035H77.374L77.4697 20.1826ZM77.1758 22.0283L76.6426 22.0215C76.6471 21.4974 76.7201 21.0166 76.8613 20.5791C77.0072 20.1416 77.2077 19.7656 77.4629 19.4512C77.7227 19.1367 78.0326 18.8952 78.3926 18.7266C78.7526 18.5534 79.1536 18.4668 79.5957 18.4668C79.9512 18.4668 80.2725 18.5169 80.5596 18.6172C80.8512 18.7129 81.0996 18.8701 81.3047 19.0889C81.5143 19.3076 81.6738 19.5924 81.7832 19.9434C81.8926 20.2897 81.9473 20.7158 81.9473 21.2217V26H80.293V21.2148C80.293 20.8594 80.2406 20.5791 80.1357 20.374C80.0355 20.1644 79.8874 20.0163 79.6914 19.9297C79.5 19.8385 79.2607 19.793 78.9736 19.793C78.6911 19.793 78.4382 19.8522 78.2148 19.9707C77.9915 20.0892 77.8024 20.251 77.6475 20.4561C77.4971 20.6611 77.3809 20.8981 77.2988 21.167C77.2168 21.4359 77.1758 21.723 77.1758 22.0283ZM88.8789 18.6035V26H87.2246V18.6035H88.8789ZM87.1152 16.6621C87.1152 16.4115 87.1973 16.2041 87.3613 16.04C87.5299 15.8714 87.7624 15.7871 88.0586 15.7871C88.3503 15.7871 88.5804 15.8714 88.749 16.04C88.9176 16.2041 89.002 16.4115 89.002 16.6621C89.002 16.9082 88.9176 17.1133 88.749 17.2773C88.5804 17.4414 88.3503 17.5234 88.0586 17.5234C87.7624 17.5234 87.5299 17.4414 87.3613 17.2773C87.1973 17.1133 87.1152 16.9082 87.1152 16.6621ZM92.3174 20.1826V26H90.6699V18.6035H92.2217L92.3174 20.1826ZM92.0234 22.0283L91.4902 22.0215C91.4948 21.4974 91.5677 21.0166 91.709 20.5791C91.8548 20.1416 92.0553 19.7656 92.3105 19.4512C92.5703 19.1367 92.8802 18.8952 93.2402 18.7266C93.6003 18.5534 94.0013 18.4668 94.4434 18.4668C94.7988 18.4668 95.1201 18.5169 95.4072 18.6172C95.6989 18.7129 95.9473 18.8701 96.1523 19.0889C96.362 19.3076 96.5215 19.5924 96.6309 19.9434C96.7402 20.2897 96.7949 20.7158 96.7949 21.2217V26H95.1406V21.2148C95.1406 20.8594 95.0882 20.5791 94.9834 20.374C94.8831 20.1644 94.735 20.0163 94.5391 19.9297C94.3477 19.8385 94.1084 19.793 93.8213 19.793C93.5387 19.793 93.2858 19.8522 93.0625 19.9707C92.8392 20.0892 92.6501 20.251 92.4951 20.4561C92.3447 20.6611 92.2285 20.8981 92.1465 21.167C92.0645 21.4359 92.0234 21.723 92.0234 22.0283ZM103.973 24.3594L105.682 18.6035H106.734L106.447 20.3262L104.725 26H103.781L103.973 24.3594ZM102.968 18.6035L104.301 24.3867L104.41 26H103.357L101.354 18.6035H102.968ZM108.334 24.3184L109.626 18.6035H111.232L109.236 26H108.184L108.334 24.3184ZM106.912 18.6035L108.601 24.291L108.812 26H107.869L106.126 20.3193L105.839 18.6035H106.912ZM114.117 18.6035V26H112.463V18.6035H114.117ZM112.354 16.6621C112.354 16.4115 112.436 16.2041 112.6 16.04C112.768 15.8714 113.001 15.7871 113.297 15.7871C113.589 15.7871 113.819 15.8714 113.987 16.04C114.156 16.2041 114.24 16.4115 114.24 16.6621C114.24 16.9082 114.156 17.1133 113.987 17.2773C113.819 17.4414 113.589 17.5234 113.297 17.5234C113.001 17.5234 112.768 17.4414 112.6 17.2773C112.436 17.1133 112.354 16.9082 112.354 16.6621ZM119.312 18.6035V19.8066H115.143V18.6035H119.312ZM116.346 16.792H117.993V23.9561C117.993 24.1839 118.025 24.3594 118.089 24.4824C118.157 24.6009 118.251 24.6807 118.369 24.7217C118.488 24.7627 118.627 24.7832 118.786 24.7832C118.9 24.7832 119.009 24.7764 119.114 24.7627C119.219 24.749 119.303 24.7354 119.367 24.7217L119.374 25.9795C119.237 26.0205 119.078 26.057 118.896 26.0889C118.718 26.1208 118.513 26.1367 118.28 26.1367C117.902 26.1367 117.567 26.0706 117.275 25.9385C116.984 25.8018 116.756 25.5807 116.592 25.2754C116.428 24.9701 116.346 24.5645 116.346 24.0586V16.792ZM122.211 15.5V26H120.57V15.5H122.211ZM121.924 22.0283L121.391 22.0215C121.395 21.5111 121.466 21.0394 121.603 20.6064C121.744 20.1735 121.94 19.7975 122.19 19.4785C122.446 19.1549 122.751 18.9066 123.106 18.7334C123.462 18.5557 123.856 18.4668 124.289 18.4668C124.654 18.4668 124.982 18.5169 125.273 18.6172C125.57 18.7174 125.825 18.8792 126.039 19.1025C126.253 19.3213 126.415 19.6084 126.524 19.9639C126.638 20.3148 126.695 20.7432 126.695 21.249V26H125.041V21.2354C125.041 20.8799 124.989 20.5973 124.884 20.3877C124.784 20.1781 124.635 20.0277 124.439 19.9365C124.243 19.8408 124.004 19.793 123.722 19.793C123.425 19.793 123.163 19.8522 122.936 19.9707C122.712 20.0892 122.525 20.251 122.375 20.4561C122.225 20.6611 122.111 20.8981 122.033 21.167C121.96 21.4359 121.924 21.723 121.924 22.0283ZM139.656 20.9141V24.7148C139.515 24.9017 139.294 25.1068 138.993 25.3301C138.697 25.5488 138.303 25.738 137.811 25.8975C137.318 26.057 136.705 26.1367 135.972 26.1367C135.347 26.1367 134.775 26.0319 134.256 25.8223C133.736 25.6081 133.287 25.2959 132.909 24.8857C132.535 24.4756 132.246 23.9766 132.041 23.3887C131.836 22.7962 131.733 22.1217 131.733 21.3652V20.6748C131.733 19.9229 131.827 19.2529 132.014 18.665C132.205 18.0726 132.479 17.5713 132.834 17.1611C133.189 16.751 133.618 16.4411 134.119 16.2314C134.625 16.0173 135.197 15.9102 135.835 15.9102C136.651 15.9102 137.325 16.0469 137.858 16.3203C138.396 16.5892 138.811 16.9629 139.103 17.4414C139.394 17.9199 139.579 18.4668 139.656 19.082H137.975C137.92 18.7357 137.813 18.4258 137.653 18.1523C137.498 17.8789 137.275 17.6647 136.983 17.5098C136.696 17.3503 136.323 17.2705 135.862 17.2705C135.466 17.2705 135.117 17.3457 134.816 17.4961C134.516 17.6465 134.265 17.8675 134.064 18.1592C133.868 18.4508 133.72 18.8063 133.62 19.2256C133.52 19.6449 133.47 20.1234 133.47 20.6611V21.3652C133.47 21.9121 133.527 22.3975 133.641 22.8213C133.759 23.2451 133.928 23.6029 134.146 23.8945C134.37 24.1862 134.641 24.4072 134.96 24.5576C135.279 24.7035 135.639 24.7764 136.04 24.7764C136.432 24.7764 136.753 24.7445 137.004 24.6807C137.255 24.6123 137.453 24.5326 137.599 24.4414C137.749 24.3457 137.865 24.2546 137.947 24.168V22.1924H135.876V20.9141H139.656ZM141.078 22.3838V22.2266C141.078 21.6934 141.156 21.1989 141.311 20.7432C141.465 20.2829 141.689 19.8841 141.98 19.5469C142.277 19.2051 142.637 18.9408 143.061 18.7539C143.489 18.5625 143.972 18.4668 144.51 18.4668C145.052 18.4668 145.535 18.5625 145.959 18.7539C146.387 18.9408 146.75 19.2051 147.046 19.5469C147.342 19.8841 147.568 20.2829 147.723 20.7432C147.878 21.1989 147.955 21.6934 147.955 22.2266V22.3838C147.955 22.917 147.878 23.4115 147.723 23.8672C147.568 24.3229 147.342 24.7217 147.046 25.0635C146.75 25.4007 146.39 25.665 145.966 25.8564C145.542 26.0433 145.061 26.1367 144.523 26.1367C143.981 26.1367 143.496 26.0433 143.067 25.8564C142.644 25.665 142.284 25.4007 141.987 25.0635C141.691 24.7217 141.465 24.3229 141.311 23.8672C141.156 23.4115 141.078 22.917 141.078 22.3838ZM142.726 22.2266V22.3838C142.726 22.7165 142.76 23.0309 142.828 23.3271C142.896 23.6234 143.004 23.8831 143.149 24.1064C143.295 24.3298 143.482 24.5052 143.71 24.6328C143.938 24.7604 144.209 24.8242 144.523 24.8242C144.829 24.8242 145.093 24.7604 145.316 24.6328C145.544 24.5052 145.731 24.3298 145.877 24.1064C146.023 23.8831 146.13 23.6234 146.198 23.3271C146.271 23.0309 146.308 22.7165 146.308 22.3838V22.2266C146.308 21.8984 146.271 21.5885 146.198 21.2969C146.13 21.0007 146.021 20.7386 145.87 20.5107C145.724 20.2829 145.537 20.1051 145.31 19.9775C145.086 19.8454 144.82 19.7793 144.51 19.7793C144.2 19.7793 143.931 19.8454 143.703 19.9775C143.48 20.1051 143.295 20.2829 143.149 20.5107C143.004 20.7386 142.896 21.0007 142.828 21.2969C142.76 21.5885 142.726 21.8984 142.726 22.2266ZM149.021 22.3838V22.2266C149.021 21.6934 149.099 21.1989 149.254 20.7432C149.409 20.2829 149.632 19.8841 149.924 19.5469C150.22 19.2051 150.58 18.9408 151.004 18.7539C151.432 18.5625 151.915 18.4668 152.453 18.4668C152.995 18.4668 153.479 18.5625 153.902 18.7539C154.331 18.9408 154.693 19.2051 154.989 19.5469C155.285 19.8841 155.511 20.2829 155.666 20.7432C155.821 21.1989 155.898 21.6934 155.898 22.2266V22.3838C155.898 22.917 155.821 23.4115 155.666 23.8672C155.511 24.3229 155.285 24.7217 154.989 25.0635C154.693 25.4007 154.333 25.665 153.909 25.8564C153.485 26.0433 153.005 26.1367 152.467 26.1367C151.924 26.1367 151.439 26.0433 151.011 25.8564C150.587 25.665 150.227 25.4007 149.931 25.0635C149.634 24.7217 149.409 24.3229 149.254 23.8672C149.099 23.4115 149.021 22.917 149.021 22.3838ZM150.669 22.2266V22.3838C150.669 22.7165 150.703 23.0309 150.771 23.3271C150.84 23.6234 150.947 23.8831 151.093 24.1064C151.239 24.3298 151.425 24.5052 151.653 24.6328C151.881 24.7604 152.152 24.8242 152.467 24.8242C152.772 24.8242 153.036 24.7604 153.26 24.6328C153.488 24.5052 153.674 24.3298 153.82 24.1064C153.966 23.8831 154.073 23.6234 154.142 23.3271C154.215 23.0309 154.251 22.7165 154.251 22.3838V22.2266C154.251 21.8984 154.215 21.5885 154.142 21.2969C154.073 21.0007 153.964 20.7386 153.813 20.5107C153.668 20.2829 153.481 20.1051 153.253 19.9775C153.03 19.8454 152.763 19.7793 152.453 19.7793C152.143 19.7793 151.874 19.8454 151.646 19.9775C151.423 20.1051 151.239 20.2829 151.093 20.5107C150.947 20.7386 150.84 21.0007 150.771 21.2969C150.703 21.5885 150.669 21.8984 150.669 22.2266ZM162.017 18.6035H163.514V25.7949C163.514 26.4603 163.372 27.0254 163.09 27.4902C162.807 27.9551 162.413 28.3083 161.907 28.5498C161.401 28.7959 160.816 28.9189 160.15 28.9189C159.868 28.9189 159.553 28.8779 159.207 28.7959C158.865 28.7139 158.533 28.5817 158.209 28.3994C157.89 28.2217 157.623 27.987 157.409 27.6953L158.182 26.7246C158.446 27.0391 158.738 27.2692 159.057 27.415C159.376 27.5609 159.711 27.6338 160.062 27.6338C160.44 27.6338 160.761 27.5632 161.025 27.4219C161.294 27.2852 161.502 27.0824 161.647 26.8135C161.793 26.5446 161.866 26.2165 161.866 25.8291V20.2783L162.017 18.6035ZM156.992 22.3838V22.2402C156.992 21.6797 157.061 21.1693 157.197 20.709C157.334 20.2441 157.53 19.8454 157.785 19.5127C158.04 19.1755 158.35 18.918 158.715 18.7402C159.079 18.5579 159.492 18.4668 159.952 18.4668C160.431 18.4668 160.839 18.5534 161.176 18.7266C161.518 18.8997 161.802 19.1481 162.03 19.4717C162.258 19.7907 162.436 20.1735 162.563 20.6201C162.696 21.0622 162.794 21.5544 162.857 22.0967V22.5547C162.798 23.0833 162.698 23.5664 162.557 24.0039C162.415 24.4414 162.229 24.8197 161.996 25.1387C161.764 25.4577 161.477 25.7038 161.135 25.877C160.798 26.0501 160.399 26.1367 159.938 26.1367C159.487 26.1367 159.079 26.0433 158.715 25.8564C158.355 25.6696 158.045 25.4076 157.785 25.0703C157.53 24.7331 157.334 24.3366 157.197 23.8809C157.061 23.4206 156.992 22.9215 156.992 22.3838ZM158.64 22.2402V22.3838C158.64 22.721 158.672 23.0355 158.735 23.3271C158.804 23.6188 158.906 23.8763 159.043 24.0996C159.184 24.3184 159.362 24.4915 159.576 24.6191C159.795 24.7422 160.052 24.8037 160.349 24.8037C160.736 24.8037 161.053 24.7217 161.299 24.5576C161.549 24.3936 161.741 24.1725 161.873 23.8945C162.01 23.612 162.105 23.2975 162.16 22.9512V21.7139C162.133 21.445 162.076 21.1943 161.989 20.9619C161.907 20.7295 161.796 20.5267 161.654 20.3535C161.513 20.1758 161.335 20.0391 161.121 19.9434C160.907 19.8431 160.654 19.793 160.362 19.793C160.066 19.793 159.809 19.8568 159.59 19.9844C159.371 20.112 159.191 20.2874 159.05 20.5107C158.913 20.734 158.811 20.9938 158.742 21.29C158.674 21.5863 158.64 21.903 158.64 22.2402ZM166.986 15.5V26H165.332V15.5H166.986ZM172.052 26.1367C171.505 26.1367 171.01 26.0479 170.568 25.8701C170.131 25.6878 169.757 25.4349 169.447 25.1113C169.142 24.7878 168.907 24.4072 168.743 23.9697C168.579 23.5322 168.497 23.0605 168.497 22.5547V22.2812C168.497 21.7025 168.581 21.1784 168.75 20.709C168.919 20.2396 169.153 19.8385 169.454 19.5059C169.755 19.1686 170.11 18.9111 170.521 18.7334C170.931 18.5557 171.375 18.4668 171.854 18.4668C172.382 18.4668 172.845 18.5557 173.241 18.7334C173.638 18.9111 173.966 19.1618 174.226 19.4854C174.49 19.8044 174.686 20.1849 174.813 20.627C174.946 21.069 175.012 21.5566 175.012 22.0898V22.7939H169.297V21.6113H173.385V21.4814C173.376 21.1852 173.316 20.9072 173.207 20.6475C173.102 20.3877 172.94 20.1781 172.722 20.0186C172.503 19.859 172.211 19.7793 171.847 19.7793C171.573 19.7793 171.329 19.8385 171.115 19.957C170.906 20.071 170.73 20.2373 170.589 20.4561C170.448 20.6748 170.338 20.9391 170.261 21.249C170.188 21.5544 170.151 21.8984 170.151 22.2812V22.5547C170.151 22.8783 170.195 23.179 170.281 23.457C170.372 23.7305 170.505 23.9697 170.678 24.1748C170.851 24.3799 171.061 24.5417 171.307 24.6602C171.553 24.7741 171.833 24.8311 172.147 24.8311C172.544 24.8311 172.897 24.7513 173.207 24.5918C173.517 24.4323 173.786 24.2067 174.014 23.915L174.882 24.7559C174.722 24.9883 174.515 25.2116 174.26 25.4258C174.005 25.6354 173.692 25.8063 173.323 25.9385C172.959 26.0706 172.535 26.1367 172.052 26.1367Z" fill="white"/>
<rect x="2.5" y="1.5" width="184" height="39" rx="1.5" stroke="#4285F4" shape-rendering="crispEdges"/>
</g>
<defs>
<filter id="filter0_dd_3_23" x="0" y="0" width="189" height="44" filterUnits="userSpaceOnUse" color-interpolation-filters="sRGB">
<feFlood flood-opacity="0" result="BackgroundImageFix"/>
<feColorMatrix in="SourceAlpha" type="matrix" values="0 0 0 0 0 0 0 0 0 0 0 0 0 0 0 0 0 0 127 0" result="hardAlpha"/>
<feOffset dy="1"/>
<feGaussianBlur stdDeviation="1"/>
<feColorMatrix type="matrix" values="0 0 0 0 0 0 0 0 0 0 0 0 0 0 0 0 0 0 0.25 0"/>
<feBlend mode="normal" in2="BackgroundImageFix" result="effect1_dropShadow_3_23"/>
<feColorMatrix in="SourceAlpha" type="matrix" values="0 0 0 0 0 0 0 0 0 0 0 0 0 0 0 0 0 0 127 0" result="hardAlpha"/>
<feOffset/>
<feComposite in2="hardAlpha" operator="out"/>
<feColorMatrix type="matrix" values="0 0 0 0 0 0 0 0 0 0 0 0 0 0 0 0 0 0 0.08 0"/>
<feBlend mode="normal" in2="effect1_dropShadow_3_23" result="effect2_dropShadow_3_23"/>
<feBlend mode="normal" in="SourceGraphic" in2="effect2_dropShadow_3_23" result="shape"/>
</filter>
</defs>
</svg>
